<svg preserveAspectRatio="none" width="100%" height="100%" overflow="visible" style="display: block;" viewBox="0 0 10 10.8347" fill="none" xmlns="http://www.w3.org/2000/svg">
<path id="Vector" d="M9.88652 7.91491C9.59741 7.41691 9.16765 6.00781 9.16765 4.16739C9.16765 3.06213 8.72858 2.00214 7.94705 1.2206C7.16551 0.439063 6.10552 0 5.00026 0C3.895 0 2.83501 0.439063 2.05347 1.2206C1.27194 2.00214 0.832874 3.06213 0.832874 4.16739C0.832874 6.00833 0.402591 7.41691 0.113478 7.91491C0.0396482 8.04152 0.000508054 8.18535 4.91281e-06 8.33191C-0.000498228 8.47847 0.0376535 8.62257 0.110613 8.74968C0.183572 8.8768 0.288758 8.98242 0.415565 9.05591C0.542371 9.12939 0.686313 9.16814 0.832874 9.16825H2.95876C3.05491 9.63873 3.31061 10.0616 3.6826 10.3652C4.0546 10.6689 4.52006 10.8347 5.00026 10.8347C5.48046 10.8347 5.94592 10.6689 6.31792 10.3652C6.68991 10.0616 6.94561 9.63873 7.04176 9.16825H9.16765C9.31416 9.16805 9.45804 9.12924 9.58477 9.05571C9.71151 8.98219 9.81662 8.87655 9.88952 8.74946C9.96241 8.62236 10.0005 8.4783 9.99999 8.33178C9.99947 8.18527 9.96033 8.04148 9.88652 7.91491ZM5.00026 10.0017C4.74179 10.0016 4.48969 9.92146 4.27868 9.7722C4.06766 9.62294 3.90809 9.41194 3.82193 9.16825H6.17859C6.09243 9.41194 5.93286 9.62294 5.72184 9.7722C5.51083 9.92146 5.25873 10.0016 5.00026 10.0017Z" fill="var(--fill-0, white)"/>
</svg>
