<svg preserveAspectRatio="none" width="100%" height="100%" overflow="visible" style="display: block;" viewBox="0 0 19 19" fill="none" xmlns="http://www.w3.org/2000/svg">
<g id="Users">
<path id="Vector" d="M8.70209 11.7206C9.49786 11.1908 10.102 10.419 10.4252 9.51931C10.7484 8.6196 10.7735 7.63977 10.4968 6.72471C10.22 5.80965 9.65617 5.00793 8.88855 4.43812C8.12092 3.86832 7.19031 3.56066 6.23431 3.56066C5.27832 3.56066 4.3477 3.86832 3.58008 4.43812C2.81246 5.00793 2.24859 5.80965 1.97185 6.72471C1.69511 7.63977 1.7202 8.6196 2.0434 9.51931C2.36661 10.419 2.97077 11.1908 3.76654 11.7206C2.32706 12.2511 1.09771 13.2329 0.261932 14.5194C0.218007 14.5847 0.187496 14.658 0.172173 14.7352C0.156851 14.8124 0.157022 14.8919 0.172678 14.969C0.188333 15.0461 0.219161 15.1193 0.263368 15.1844C0.307576 15.2495 0.364281 15.3052 0.430188 15.3482C0.496095 15.3911 0.56989 15.4206 0.647282 15.4348C0.724674 15.449 0.804121 15.4477 0.881003 15.431C0.957885 15.4142 1.03067 15.3823 1.09513 15.3372C1.15958 15.2921 1.21442 15.2346 1.25646 15.1681C1.79558 14.3389 2.53329 13.6575 3.4026 13.1858C4.27191 12.7141 5.24528 12.4671 6.23431 12.4671C7.22335 12.4671 8.19672 12.7141 9.06603 13.1858C9.93534 13.6575 10.673 14.3389 11.2122 15.1681C11.2993 15.2975 11.4338 15.3874 11.5867 15.4185C11.7395 15.4495 11.8985 15.4191 12.0292 15.3339C12.1598 15.2487 12.2517 15.1155 12.2849 14.9631C12.3181 14.8106 12.29 14.6513 12.2067 14.5194C11.3709 13.2329 10.1416 12.2511 8.70209 11.7206ZM2.96869 8.0156C2.96869 7.36972 3.16022 6.73834 3.51905 6.20131C3.87788 5.66428 4.3879 5.24572 4.98461 4.99855C5.58133 4.75138 6.23794 4.68671 6.87141 4.81272C7.50488 4.93872 8.08675 5.24974 8.54346 5.70645C9.00017 6.16316 9.31119 6.74503 9.43719 7.3785C9.5632 8.01197 9.49853 8.66858 9.25136 9.2653C9.00419 9.86201 8.58563 10.372 8.0486 10.7309C7.51157 11.0897 6.88019 11.2812 6.23431 11.2812C5.36852 11.2802 4.53846 10.9359 3.92625 10.3237C3.31404 9.71145 2.96967 8.88139 2.96869 8.0156ZM18.565 15.341C18.4331 15.427 18.2725 15.4571 18.1184 15.4247C17.9643 15.3922 17.8294 15.2999 17.7434 15.1681C17.2049 14.3384 16.4673 13.6567 15.5978 13.1852C14.7284 12.7137 13.7547 12.4674 12.7656 12.4687C12.6081 12.4687 12.4571 12.4062 12.3457 12.2948C12.2344 12.1835 12.1718 12.0324 12.1718 11.875C12.1718 11.7175 12.2344 11.5665 12.3457 11.4551C12.4571 11.3438 12.6081 11.2812 12.7656 11.2812C13.2465 11.2808 13.7214 11.1741 14.1563 10.9688C14.5912 10.7636 14.9754 10.4648 15.2814 10.0938C15.5875 9.72289 15.8078 9.28892 15.9267 8.82293C16.0456 8.35694 16.0601 7.87045 15.9692 7.39821C15.8783 6.92596 15.6842 6.47963 15.4008 6.0911C15.1174 5.70257 14.7516 5.38143 14.3297 5.15063C13.9078 4.91983 13.4401 4.78506 12.9601 4.75596C12.4801 4.72685 11.9995 4.80413 11.5528 4.98228C11.48 5.01376 11.4016 5.03033 11.3222 5.031C11.2429 5.03167 11.1642 5.01643 11.0909 4.98618C11.0175 4.95593 10.951 4.91128 10.8952 4.85488C10.8394 4.79847 10.7954 4.73146 10.7659 4.65778C10.7365 4.58411 10.7221 4.50528 10.7236 4.42595C10.7251 4.34661 10.7425 4.26839 10.7748 4.19589C10.807 4.1234 10.8535 4.0581 10.9114 4.00387C10.9693 3.94963 11.0375 3.90756 11.112 3.88013C12.1343 3.47241 13.2714 3.45773 14.3039 3.83894C15.3364 4.22015 16.1912 4.97022 16.7033 5.94446C17.2154 6.9187 17.3486 8.04808 17.0772 9.11471C16.8057 10.1814 16.1489 11.1097 15.2333 11.7206C16.6728 12.2511 17.9022 13.2329 18.7379 14.5194C18.8239 14.6513 18.854 14.8119 18.8216 14.966C18.7892 15.1201 18.6969 15.255 18.565 15.341Z" fill="var(--fill-0, #464646)"/>
</g>
</svg>
